<mxfile host="Electron" modified="2024-05-05T08:31:14.646Z" agent="Mozilla/5.0 (Windows NT 10.0; Win64; x64) AppleWebKit/537.36 (KHTML, like Gecko) draw.io/24.2.5 Chrome/120.0.6099.109 Electron/28.1.0 Safari/537.36" etag="iNR3vmtTWu-Z5zQpkw2b" version="24.2.5" type="device">
  <diagram name="Sayfa -1" id="ZrMv-iACGFdd1nEy7ITE">
    <mxGraphModel dx="1008" dy="594" grid="1" gridSize="10" guides="1" tooltips="1" connect="1" arrows="1" fold="1" page="1" pageScale="1" pageWidth="827" pageHeight="1169" math="0" shadow="0">
      <root>
        <mxCell id="0" />
        <mxCell id="1" parent="0" />
        <mxCell id="anc1-lWHMJ7XGJinLPBT-2" value="Kullanıcı" style="swimlane;whiteSpace=wrap;html=1;fillColor=#d5e8d4;strokeColor=#000000;" parent="1" vertex="1">
          <mxGeometry x="30" y="180" width="210" height="200" as="geometry" />
        </mxCell>
        <mxCell id="anc1-lWHMJ7XGJinLPBT-3" value="&lt;div style=&quot;text-align: left; font-size: 14px;&quot;&gt;&lt;span style=&quot;background-color: initial; font-size: 14px;&quot;&gt;ID&amp;nbsp; &amp;nbsp; (PK)&lt;span style=&quot;white-space: pre;&quot;&gt;&#x9;&lt;/span&gt;&lt;span style=&quot;white-space: pre;&quot;&gt;&#x9;&lt;/span&gt;Integer&lt;/span&gt;&lt;/div&gt;&lt;div style=&quot;text-align: left; font-size: 14px;&quot;&gt;Interests&lt;span style=&quot;white-space: pre;&quot;&gt;&#x9;&lt;span style=&quot;white-space: pre;&quot;&gt;&#x9;&lt;/span&gt;&lt;/span&gt;String&lt;/div&gt;&lt;div style=&quot;text-align: left; font-size: 14px;&quot;&gt;Driver&lt;span style=&quot;white-space: pre;&quot;&gt;&#x9;&lt;/span&gt;&lt;span style=&quot;white-space: pre;&quot;&gt;&#x9;&lt;/span&gt;Boolean&lt;/div&gt;&lt;div style=&quot;text-align: left; font-size: 14px;&quot;&gt;Photograph&lt;span style=&quot;white-space: pre;&quot;&gt;&#x9;&lt;/span&gt;Bitmap&lt;/div&gt;&lt;div style=&quot;text-align: left; font-size: 14px;&quot;&gt;Age&lt;span style=&quot;white-space: pre;&quot;&gt;&#x9;&lt;/span&gt;&lt;span style=&quot;white-space: pre;&quot;&gt;&#x9;&lt;/span&gt;&lt;span style=&quot;white-space: pre;&quot;&gt;&#x9;&lt;/span&gt;Integer&lt;/div&gt;&lt;div style=&quot;text-align: left; font-size: 14px;&quot;&gt;Location &lt;span style=&quot;white-space: pre;&quot;&gt;&#x9;&lt;/span&gt;&lt;span style=&quot;white-space: pre;&quot;&gt;&#x9;&lt;/span&gt;String&lt;/div&gt;&lt;div style=&quot;text-align: left; font-size: 14px;&quot;&gt;Smoking &lt;span style=&quot;white-space: pre;&quot;&gt;&#x9;&lt;/span&gt;&lt;span style=&quot;white-space: pre;&quot;&gt;&#x9;&lt;/span&gt;Boolean&lt;/div&gt;&lt;div style=&quot;text-align: left; font-size: 14px;&quot;&gt;Point &lt;span style=&quot;white-space: pre;&quot;&gt;&#x9;&lt;/span&gt;&lt;span style=&quot;white-space: pre;&quot;&gt;&#x9;&lt;/span&gt;Float&lt;/div&gt;&lt;div style=&quot;text-align: left; font-size: 14px;&quot;&gt;About &lt;span style=&quot;white-space: pre;&quot;&gt;&#x9;&lt;/span&gt;&lt;span style=&quot;white-space: pre;&quot;&gt;&#x9;&lt;/span&gt;String&lt;/div&gt;" style="text;html=1;align=center;verticalAlign=middle;resizable=0;points=[];autosize=1;strokeColor=none;fillColor=none;strokeWidth=0;fontSize=14;" parent="anc1-lWHMJ7XGJinLPBT-2" vertex="1">
          <mxGeometry x="20" y="30" width="170" height="160" as="geometry" />
        </mxCell>
        <mxCell id="anc1-lWHMJ7XGJinLPBT-6" value="Yorum" style="swimlane;whiteSpace=wrap;html=1;fillColor=#d5e8d4;strokeColor=#000000;" parent="1" vertex="1">
          <mxGeometry x="400" y="140" width="220" height="130" as="geometry" />
        </mxCell>
        <mxCell id="anc1-lWHMJ7XGJinLPBT-7" value="&lt;div style=&quot;text-align: left; font-size: 14px;&quot;&gt;&lt;span style=&quot;background-color: initial; font-size: 14px;&quot;&gt;ID&amp;nbsp; &amp;nbsp; (PK)&lt;span style=&quot;white-space: pre;&quot;&gt;&#x9;&lt;/span&gt;&lt;span style=&quot;white-space: pre;&quot;&gt;&#x9;&lt;/span&gt;Integer&lt;/span&gt;&lt;/div&gt;&lt;div style=&quot;text-align: left; font-size: 14px;&quot;&gt;To_ID&lt;span style=&quot;white-space: pre;&quot;&gt;&#x9;&lt;/span&gt;&lt;span style=&quot;white-space: pre;&quot;&gt;&#x9;&lt;/span&gt;&lt;span style=&quot;background-color: initial;&quot;&gt;Integer&lt;/span&gt;&lt;/div&gt;&lt;div style=&quot;text-align: left; font-size: 14px;&quot;&gt;&lt;span style=&quot;background-color: initial;&quot;&gt;From_ID&lt;/span&gt;&lt;span style=&quot;background-color: initial; white-space-collapse: preserve;&quot;&gt;&#x9;&lt;span style=&quot;white-space: pre;&quot;&gt;&#x9;&lt;/span&gt;&lt;/span&gt;&lt;span style=&quot;background-color: initial;&quot;&gt;Integer&lt;/span&gt;&lt;/div&gt;&lt;div style=&quot;text-align: left; font-size: 14px;&quot;&gt;Point 1-10&lt;span style=&quot;white-space: pre;&quot;&gt;&#x9;&lt;/span&gt;&lt;span style=&quot;background-color: initial;&quot;&gt;Integer&lt;/span&gt;&lt;/div&gt;&lt;div style=&quot;text-align: left; font-size: 14px;&quot;&gt;&lt;span style=&quot;background-color: initial;&quot;&gt;Comment &lt;span style=&quot;white-space: pre;&quot;&gt;&#x9;&lt;/span&gt;String&lt;/span&gt;&lt;/div&gt;" style="text;html=1;align=center;verticalAlign=middle;resizable=0;points=[];autosize=1;strokeColor=none;fillColor=none;strokeWidth=0;fontSize=14;" parent="anc1-lWHMJ7XGJinLPBT-6" vertex="1">
          <mxGeometry x="30" y="30" width="160" height="100" as="geometry" />
        </mxCell>
        <mxCell id="anc1-lWHMJ7XGJinLPBT-10" value="Seyahat" style="swimlane;whiteSpace=wrap;html=1;fillColor=#d5e8d4;strokeColor=#000000;" parent="1" vertex="1">
          <mxGeometry x="400" y="370" width="270" height="390" as="geometry" />
        </mxCell>
        <mxCell id="anc1-lWHMJ7XGJinLPBT-11" value="&lt;div style=&quot;text-align: left; font-size: 14px;&quot;&gt;&lt;span style=&quot;background-color: initial; font-size: 14px;&quot;&gt;ID&amp;nbsp; &amp;nbsp; (PK)&lt;span style=&quot;white-space: pre;&quot;&gt;&#x9;&lt;/span&gt;&lt;span style=&quot;white-space: pre;&quot;&gt;&#x9;&lt;span style=&quot;white-space: pre;&quot;&gt;&#x9;&lt;/span&gt;&lt;/span&gt;Integer&lt;/span&gt;&lt;/div&gt;&lt;div style=&quot;text-align: left; font-size: 14px;&quot;&gt;Departure_Point&lt;span style=&quot;white-space: pre;&quot;&gt;&#x9;&lt;/span&gt;String&lt;/div&gt;&lt;div style=&quot;text-align: left; font-size: 14px;&quot;&gt;Arrival_Point&lt;span style=&quot;white-space: pre;&quot;&gt;&#x9;&lt;span style=&quot;white-space: pre;&quot;&gt;&#x9;&lt;/span&gt;&lt;/span&gt;String&lt;/div&gt;&lt;div style=&quot;text-align: left; font-size: 14px;&quot;&gt;Date&lt;span style=&quot;white-space: pre;&quot;&gt;&#x9;&lt;/span&gt;&lt;span style=&quot;white-space: pre;&quot;&gt;&#x9;&lt;/span&gt;&lt;span style=&quot;white-space: pre;&quot;&gt;&#x9;&lt;/span&gt;String&lt;/div&gt;&lt;div style=&quot;text-align: left; font-size: 14px;&quot;&gt;Price&lt;span style=&quot;white-space: pre;&quot;&gt;&#x9;&lt;/span&gt;&lt;span style=&quot;white-space: pre;&quot;&gt;&#x9;&lt;/span&gt;&lt;span style=&quot;white-space: pre;&quot;&gt;&#x9;&lt;/span&gt;Float&lt;/div&gt;&lt;div style=&quot;text-align: left; font-size: 14px;&quot;&gt;Number_of_Ppl&lt;span style=&quot;white-space: pre;&quot;&gt;&lt;span style=&quot;white-space: pre;&quot;&gt;&#x9;&lt;/span&gt;&lt;/span&gt;Integer&lt;/div&gt;&lt;div style=&quot;text-align: left; font-size: 14px;&quot;&gt;Departure_Time&lt;span style=&quot;white-space: pre;&quot;&gt;&#x9;&lt;/span&gt;String&lt;/div&gt;&lt;div style=&quot;text-align: left; font-size: 14px;&quot;&gt;Destination_Saat&lt;span style=&quot;white-space: pre;&quot;&gt;&#x9;&lt;/span&gt;String&lt;/div&gt;&lt;div style=&quot;text-align: left; font-size: 14px;&quot;&gt;Time&lt;span style=&quot;white-space: pre;&quot;&gt;&#x9;&lt;/span&gt;&lt;span style=&quot;white-space: pre;&quot;&gt;&#x9;&lt;/span&gt;&lt;span style=&quot;white-space: pre;&quot;&gt;&#x9;&lt;/span&gt;String&lt;/div&gt;&lt;div style=&quot;text-align: left; font-size: 14px;&quot;&gt;Driver_Name&lt;span style=&quot;white-space: pre;&quot;&gt;&#x9;&lt;/span&gt;&lt;span style=&quot;white-space: pre;&quot;&gt;&#x9;&lt;/span&gt;String&lt;/div&gt;&lt;div style=&quot;text-align: left; font-size: 14px;&quot;&gt;Driver_Photo&lt;span style=&quot;white-space: pre;&quot;&gt;&lt;span style=&quot;white-space: pre;&quot;&gt;&#x9;&lt;/span&gt;&lt;span style=&quot;white-space: pre;&quot;&gt;&#x9;&lt;/span&gt;&lt;/span&gt;Bitmap&lt;/div&gt;&lt;div style=&quot;text-align: left; font-size: 14px;&quot;&gt;Driver_ID&lt;span style=&quot;white-space: pre;&quot;&gt;&#x9;&lt;/span&gt;&lt;span style=&quot;white-space: pre;&quot;&gt;&#x9;&lt;/span&gt;&lt;span style=&quot;white-space: pre;&quot;&gt;&#x9;&lt;/span&gt;Integer&lt;span style=&quot;white-space: pre;&quot;&gt;&#x9;&lt;/span&gt;&lt;/div&gt;&lt;div style=&quot;text-align: left; font-size: 14px;&quot;&gt;Driver_Point&lt;span style=&quot;white-space: pre;&quot;&gt;&#x9;&lt;/span&gt;&lt;span style=&quot;white-space: pre;&quot;&gt;&#x9;&lt;/span&gt;Float&lt;/div&gt;&lt;div style=&quot;text-align: left; font-size: 14px;&quot;&gt;Car_Model&lt;span style=&quot;white-space: pre;&quot;&gt;&#x9;&lt;/span&gt;&lt;span style=&quot;white-space: pre;&quot;&gt;&#x9;&lt;/span&gt;String&lt;/div&gt;&lt;div style=&quot;text-align: left; font-size: 14px;&quot;&gt;Car_Brand&lt;span style=&quot;white-space: pre;&quot;&gt;&#x9;&lt;/span&gt;&lt;span style=&quot;white-space: pre;&quot;&gt;&#x9;&lt;/span&gt;String&lt;/div&gt;&lt;div style=&quot;text-align: left; font-size: 14px;&quot;&gt;Car_Plate&lt;span style=&quot;white-space: pre;&quot;&gt;&#x9;&lt;/span&gt;&lt;span style=&quot;white-space: pre;&quot;&gt;&#x9;&lt;/span&gt;String&lt;/div&gt;&lt;div style=&quot;text-align: left; font-size: 14px;&quot;&gt;Message&lt;span style=&quot;white-space: pre;&quot;&gt;&#x9;&lt;span style=&quot;white-space: pre;&quot;&gt;&#x9;&lt;/span&gt;&lt;/span&gt;&lt;span style=&quot;white-space: pre;&quot;&gt;&#x9;&lt;/span&gt;String&lt;/div&gt;&lt;div style=&quot;text-align: left; font-size: 14px;&quot;&gt;PassengerID&lt;span style=&quot;white-space: pre;&quot;&gt;&#x9;&lt;/span&gt;&lt;span style=&quot;white-space: pre;&quot;&gt;&#x9;&lt;/span&gt;IntArray&lt;/div&gt;" style="text;html=1;align=center;verticalAlign=middle;resizable=0;points=[];autosize=1;strokeColor=none;fillColor=none;strokeWidth=0;fontSize=14;" parent="anc1-lWHMJ7XGJinLPBT-10" vertex="1">
          <mxGeometry x="35" y="30" width="210" height="320" as="geometry" />
        </mxCell>
        <mxCell id="anc1-lWHMJ7XGJinLPBT-12" value="" style="edgeStyle=entityRelationEdgeStyle;fontSize=12;html=1;endArrow=ERoneToMany;rounded=0;entryX=-0.006;entryY=0.144;entryDx=0;entryDy=0;entryPerimeter=0;" parent="1" target="anc1-lWHMJ7XGJinLPBT-6" edge="1">
          <mxGeometry width="100" height="100" relative="1" as="geometry">
            <mxPoint x="240" y="270" as="sourcePoint" />
            <mxPoint x="340" y="170" as="targetPoint" />
          </mxGeometry>
        </mxCell>
        <mxCell id="anc1-lWHMJ7XGJinLPBT-13" value="" style="edgeStyle=entityRelationEdgeStyle;fontSize=12;html=1;endArrow=ERmandOne;startArrow=ERmandOne;rounded=0;" parent="1" edge="1">
          <mxGeometry width="100" height="100" relative="1" as="geometry">
            <mxPoint x="240" y="310" as="sourcePoint" />
            <mxPoint x="400" y="480" as="targetPoint" />
          </mxGeometry>
        </mxCell>
      </root>
    </mxGraphModel>
  </diagram>
</mxfile>
